<svg id="Layer_1" data-name="Layer 1" xmlns="http://www.w3.org/2000/svg" viewBox="0 0 772.18 475.41"><defs><style>.cls-1{fill:#fff;}.cls-2{fill:#6a6b6f;}.cls-3{fill:#666669;}</style></defs><title>arredo</title><path class="cls-1" d="M301,186.32q190.81,0,381.65-.09c3.62,0,4.44.79,4.44,4.29q-.16,233.41,0,466.83c0,3.5-.82,4.29-4.44,4.29q-381.66-.15-763.31,0c-3.62,0-4.44-.79-4.44-4.29q.16-233.42,0-466.83c0-3.5.82-4.3,4.44-4.29Q110.14,186.38,301,186.32Z" transform="translate(85.13 -186.23)"/><path class="cls-2" d="M390.18,454.7c-.74,10.3-7.76,8-13.36,7.92-17.09-.14-30.61-9.77-34.57-24.46-6-22.41,10.51-42.92,34.4-42.65q4.35,0,8.68.2c2.27.08,3.25-.77,1.63-2.63-1.85-2.13-1.31-4.18-.7-6.5,1.26-4.81,2.46-9.65,3.36-14.54.48-2.64,1.53-3.7,4.39-3.6,5.3.19,10.62.25,15.91,0,3.41-.17,3.91,1.23,3.9,4.08-.13,20.85-.06,41.69-.16,62.54,0,2.61.25,4.63,3.49,4.91,2.38.2,2.21,1.48,1.63,3.23q-2.86,8.64-5.47,17.36a2.63,2.63,0,0,1-3.05,2.21c-2.41-.09-4.82,0-7.23,0C397.45,462.69,390.73,464.63,390.18,454.7Z" transform="translate(85.13 -186.23)"/><path class="cls-2" d="M156.7,456.76c-2.07,7.86-7.9,6.23-13,5.94-20.65-1.17-34.53-17.93-31.74-38.22,2.41-17.52,21.7-29.81,40.64-25.77,2.24.48,4,.74,5.43-1.42.92-1.43,2.51-1.16,3.94-1.16,5.78,0,11.57.23,17.35,0,3.24-.12,4,1,4,4-.13,12.59-.05,25.19,0,37.78,0,1.83-.9,4.2,2.62,4.29,1.74.05,1.05,1.59.81,2.56-1.28,5.12-2.66,10.23-3.9,15.36-.48,2-1.48,2.77-3.67,2.69-4.66-.16-9.33-.21-14,0C160.93,463,157,463.13,156.7,456.76Z" transform="translate(85.13 -186.23)"/><path class="cls-2" d="M296.58,436.45c5.44,6.16,12,6.73,18.46,7.37,5.3.53,10.57-.45,15.75-1.54,3-.63,4.25.08,3.12,3.22-.58,1.61-.8,3.32-1.26,5C329.42,462,332,460.59,319.1,462.3c-11.32,1.51-22.67,1.06-33.16-4.91-13.4-7.63-20-21.94-16.21-36.51,3.58-13.72,17.28-24.14,32-24.67,25.35-.91,37,16.37,37,37,0,2.84-1.28,3.27-3.79,3.25C322.57,436.4,310.21,436.45,296.58,436.45Z" transform="translate(85.13 -186.23)"/><path class="cls-2" d="M454.26,462.81c-18.78.63-35.3-14.11-35.17-33.45s15.47-33.19,34.72-33.6,36,15.33,36,33C489.82,448.21,474.62,462.75,454.26,462.81Z" transform="translate(85.13 -186.23)"/><path class="cls-2" d="M246.46,462.74c-10.45,0-10.4,0-10.46-10.2s-.31-20.49-.26-30.73c0-2.57-.71-4.21-3.33-4.78-2.24-.48-2.64-1.54-2-3.66,1.44-4.6,2.75-9.24,3.74-13.94.54-2.53,1.71-3.32,4.24-3.23,3.84.14,7.7,0,11.55,0,.8,0,2.13-.22,2.33.14,3.21,5.61,7.45,1.36,11.11,1,11.82-1.11,12.07-.9,8,9.85-1,2.62-1.93,5.26-2.71,7.94-.95,3.23-1.88,5.74-6.4,6-3.95.22-5,3.68-4.94,7.34.12,9.78-.19,19.58.22,29.35.18,4.33-1.33,5.48-5.39,4.95A46.25,46.25,0,0,0,246.46,462.74Z" transform="translate(85.13 -186.23)"/><path class="cls-2" d="M214,461.73c-4.64,2.32-9.58.71-14.37.93-6.8.31-6.81.08-6.81-6.57,0-11.33-.06-22.67,0-34,0-2.39-.2-4.31-3-4.88-2.68-.54-3.18-1.91-2.27-4.41a49,49,0,0,0,3-10.74c.57-4.92,2.86-6.57,7.8-5.88,2.83.39,5.76,0,8.65,0,.95,0,2.57-.08,2.74.32,2,4.77,5.19,1.94,8,1.38.16,0,.31-.1.47-.12,4.29-.59,9.47-2.08,12.56.23,1.85,1.39-1.82,6.29-2.67,9.72-.59,2.4-1.63,4.7-2.37,7.07-1,3.3-2,6-6.68,6.41-4.11.34-5.09,4.18-5.1,7.87A259.31,259.31,0,0,0,214,461.73Z" transform="translate(85.13 -186.23)"/><path class="cls-3" d="M214,461.73c-1.46-1.43-.85-3.24-.86-4.89-.06-7.77-.05-15.55,0-23.32,0-1.5-.5-3.15.86-4.42Q214,445.41,214,461.73Z" transform="translate(85.13 -186.23)"/><path class="cls-1" d="M377.54,435.81c-3.55.38-7.79-.49-10.38-5.31-2.07-3.84-1.42-7.18,1.18-10.38s6.44-4.07,10.42-3.11a9,9,0,0,1,7.16,7.88,22.07,22.07,0,0,1,.09,3.73C385.86,437,386.93,435.32,377.54,435.81Z" transform="translate(85.13 -186.23)"/><path class="cls-1" d="M149.73,436.82c-8.56.26-12.83-2.95-13-9.37a8.77,8.77,0,0,1,6.2-9c4.22-1.56,8.23-.77,11.31,2.75,3.78,4.31,3,9.51,1.92,14.22C155.52,438.19,151.63,436.11,149.73,436.82Z" transform="translate(85.13 -186.23)"/><path class="cls-1" d="M305.36,419.08c-3.14,0-5.07.08-7,0-1.36-.08-3.23.7-4-.74-.9-1.79.65-3.22,1.81-4.45,4.77-5.08,14.71-3.81,17.68,2.13,1.17,2.34.85,3.55-2.08,3.4Z" transform="translate(85.13 -186.23)"/><path class="cls-1" d="M467.82,428.4c0,6.43-6.2,12.42-13.07,12.59-7.21.17-13.65-5.7-13.58-12.4.09-7.38,5.56-12.68,13.1-12.65C461.55,416,467.81,421.72,467.82,428.4Z" transform="translate(85.13 -186.23)"/></svg>