<svg id="Layer_1" data-name="Layer 1" xmlns="http://www.w3.org/2000/svg" viewBox="0 0 612.19 285.17"><defs><style>.cls-1{fill:#fefefe;}.cls-2{fill:#696b6f;}.cls-3{fill:#696b6e;}.cls-4{fill:#6a6b6e;}.cls-5{fill:#6a6b6f;}.cls-6{fill:#676769;}.cls-7{fill:#f7f7f7;}.cls-8{fill:#f2f2f3;}</style></defs><title>arredo2</title><path class="cls-1" d="M307,530.89q-151,0-302.11.09c-3.33,0-4-.6-4-3.65Q1,388.39.88,249.45c0-3,.65-3.65,4-3.64q302.12.13,604.23,0c3.32,0,4,.59,4,3.64q-.16,138.95,0,277.88c0,3-.65,3.65-4,3.65Q458,530.82,307,530.89Z" transform="translate(-0.88 -245.81)"/><path class="cls-2" d="M406.92,410.67c-2.49,9.24-9.85,7.49-16.3,7.34-16.51-.4-30.64-10.24-33.76-24.49-4.68-21.39,11-38.86,33.37-39.25,3.88-.07,7.76.08,11.65.1,1.73,0,4.13-.59,2.8-2.3-4.1-5.28-.29-10.08.72-14.84,2-9.66,2.42-9.59,13.41-9.58,11.77,0,11.78,0,11.77,10.81,0,17.66,0,35.31-.07,53,0,2.86,0,5.36,4,5.94,1.56.22,1.84,1.25,1.32,2.7-1.91,5.34-3.69,10.71-5.45,16.08-.52,1.57-1.67,2-3.3,2s-3.56,0-5.34,0C415.52,418.1,408.32,419.88,406.92,410.67Z" transform="translate(-0.88 -245.81)"/><path class="cls-3" d="M162.52,412.12c-8.17,10.25-17.84,6.22-26.44,3.45-13.32-4.29-22.65-17.78-21.43-28.95,1.77-16.31,11.81-26.92,28.14-29.64,4-.66,7.9-1.22,12-.18,3.33.85,6.91,2,9.47-1.75.72-1.06,2.4-.6,3.67-.6,5.5,0,11,.17,16.5-.06,3.41-.14,4.42.94,4.38,4-.14,12.3,0,24.61,0,36.92,0,1.8-.73,4,2.53,4.4,1.86.25.82,1.59.59,2.48-1.15,4.45-2.35,8.9-3.54,13.34-.48,1.82-1.58,2.66-3.79,2.58-4.2-.15-8.41-.13-12.61,0C167.42,418.25,162.51,419.14,162.52,412.12Z" transform="translate(-0.88 -245.81)"/><path class="cls-3" d="M330.48,392.23H313c-1.6,0-3.66-.32-4.25,1.35-.69,1.95,1.47,2.75,2.89,3.52C318.9,401,326.87,401.65,335,401c3-.23,6.06-.8,9.08-1.25,2.47-.36,3.32.6,2.72,2.74-.44,1.57-1.25,3.11-1.35,4.69-.45,7.13-4.72,10.22-12.21,10.59-13.64.69-27,1.09-39.07-6.7-20-12.91-18.8-40.41,2.5-51.56,15.81-8.26,35.28-6.15,46.4,5.58,6.59,6.94,8.84,15.57,8.89,24.7,0,2.49-1.69,2.41-3.55,2.41C342.45,392.22,336.47,392.23,330.48,392.23Z" transform="translate(-0.88 -245.81)"/><path class="cls-4" d="M473.89,418.13c-20.64.73-35.72-14.7-36-31.66-.27-17.51,16.2-31.88,35.84-32.15,19.95-.27,36.91,16.5,36.84,31.42C510.5,403.14,494.39,419.13,473.89,418.13Z" transform="translate(-0.88 -245.81)"/><path class="cls-5" d="M221.32,416.85c-1.9,2.51-4.72,1.18-7,1.16-4.61,0-10.57,1.95-13.48-.84-2.67-2.55-.71-7.92-.76-12-.1-8.75-.13-17.5,0-26.25.06-2.74-.62-4.65-3.74-5.24-2.2-.42-2.3-1.43-1.68-3.22,1.56-4.5,3-9,4.17-13.62.48-1.91,1.36-2.38,3.24-2.36,4.2.06,8.41,0,12.61,0,1,0,2.18-.09,2.57.86,1.59,3.87,4.23,2.68,7.18,1.58,4-1.48,8.3-.79,12.48-.89,1.67,0,2.38.49,1.72,2.16-2.09,5.27-4.21,10.54-6.07,15.88-.68,1.95-1.67,2.75-3.92,3.2-6.53,1.31-8.29,4-7.31,10.3A260.35,260.35,0,0,0,221.32,416.85Z" transform="translate(-0.88 -245.81)"/><path class="cls-3" d="M245.54,396.7c0-5.79-.13-11.57.06-17.35.09-2.73-.64-4.76-3.68-5.4-2.72-.57-2.54-1.93-1.91-3.89,1.31-4.09,2.59-8.21,3.51-12.39.53-2.38,1.69-3.29,4.23-3.23,3.88.09,7.76,0,11.65,0,1.11,0,2.79-.22,3.08.8,1.3,4.59,4.17,2.47,6.87,1.58,4.07-1.34,8.32-.74,12.5-.81,2.23,0,2.21,1.21,1.65,2.7-2,5.45-4.11,10.9-6.05,16.38-.56,1.58-1.68,1.79-3.21,2.05-5.93,1-7.83,3.31-7.81,8.87,0,9.34-.08,18.68.1,28,.06,3-.64,4.41-4.22,4.1-5.41-.48-12.46,2.05-15.83-1.06-3.15-2.9-.67-9.31-.89-14.17-.1-2.07,0-4.15,0-6.22Z" transform="translate(-0.88 -245.81)"/><path class="cls-6" d="M221.32,416.85c-1.72-3.39-.79-7-.72-10.44.14-6.28-1-12.63.72-18.86Q221.92,402.19,221.32,416.85Z" transform="translate(-0.88 -245.81)"/><path class="cls-7" d="M402.32,387.16c-.12,6.44.8,5.23-7,5.51-3.87.14-7.76.27-10.77-2.75-3.67-3.69-4.32-7.36-1.74-11.29,2.46-3.75,6.84-5.43,11.66-4.47a9.45,9.45,0,0,1,7.85,8.95C402.37,384.14,402.32,385.18,402.32,387.16Z" transform="translate(-0.88 -245.81)"/><path class="cls-7" d="M154,393.74c-8.76.1-13.06-2.75-13.38-8.85-.28-5.2,3.39-9.23,8.9-9.8,5.66-.59,10.77,2.71,11.73,7.67a19.53,19.53,0,0,1,.25,4C161.45,393.66,161.43,393.65,154,393.74Z" transform="translate(-0.88 -245.81)"/><path class="cls-8" d="M316.48,376.51c-2.59,0-5.18-.05-7.77,0-2.81.07-3.54-1-2.26-3.25,2.12-3.72,5.82-5.25,10-5.14s8.26,1.53,10.37,5.49c1.11,2.08.42,3.06-2.13,3-2.75,0-5.5,0-8.25,0Z" transform="translate(-0.88 -245.81)"/><path class="cls-7" d="M474.53,397.56c-7.9.09-14.13-5.17-14.09-11.9.05-7.29,5.56-12.4,13.42-12.42s14.13,5.23,14.45,11.85C488.62,391.43,482,397.47,474.53,397.56Z" transform="translate(-0.88 -245.81)"/></svg>