<svg id="Layer_1" data-name="Layer 1" xmlns="http://www.w3.org/2000/svg" viewBox="0 0 717 437.64"><defs><style>.cls-1{fill:#fff;}.cls-2{fill:#6a6b6f;}.cls-3{fill:#666669;}</style></defs><title>ce-arredo</title><path class="cls-1" d="M306,172.59q177.2,0,354.38-.08c3.36,0,4.12.73,4.12,4q-.15,214.87,0,429.74c0,3.22-.76,3.95-4.12,3.95Q306,610-48.38,610.15c-3.36,0-4.12-.73-4.12-3.95q.15-214.88,0-429.74c0-3.22.76-4,4.12-4Q128.8,172.66,306,172.59Z" transform="translate(52.5 -172.51)"/><path class="cls-2" d="M388.84,419.65c-.69,9.48-7.2,7.33-12.4,7.29-15.87-.13-28.43-9-32.1-22.51-5.61-20.63,9.75-39.52,31.94-39.27,2.69,0,5.37.1,8.06.19,2.11.07,3-.71,1.51-2.42-1.71-2-1.22-3.85-.65-6,1.17-4.43,2.29-8.88,3.12-13.38.45-2.43,1.42-3.41,4.08-3.32,4.92.18,9.86.24,14.77,0,3.16-.15,3.63,1.14,3.62,3.77-.12,19.18-.06,38.37-.15,57.56,0,2.4.23,4.27,3.24,4.52,2.22.18,2.05,1.37,1.51,3q-2.65,7.95-5.08,16a2.44,2.44,0,0,1-2.82,2c-2.24-.08-4.48,0-6.72,0C395.59,427,389.35,428.79,388.84,419.65Z" transform="translate(52.5 -172.51)"/><path class="cls-2" d="M172,421.55c-1.91,7.24-7.33,5.73-12.11,5.46-19.17-1.07-32.07-16.5-29.48-35.17,2.24-16.14,20.16-27.44,37.74-23.72,2.08.43,3.76.67,5.05-1.32.85-1.32,2.33-1.07,3.65-1.06,5.37,0,10.75.2,16.11,0,3-.11,3.75.91,3.72,3.66-.13,11.59-.05,23.19,0,34.78,0,1.68-.83,3.87,2.43,3.95,1.62,0,1,1.46.76,2.35-1.19,4.72-2.47,9.42-3.63,14.14-.44,1.83-1.36,2.55-3.4,2.48-4.32-.15-8.66-.19-13,0C176,427.27,172.32,427.41,172,421.55Z" transform="translate(52.5 -172.51)"/><path class="cls-2" d="M301.93,402.85c5.05,5.67,11.18,6.2,17.14,6.79,4.92.49,9.81-.42,14.63-1.42,2.81-.58,3.94.08,2.89,3-.54,1.47-.74,3.05-1.17,4.57-3,10.63-.59,9.31-12.58,10.89-10.51,1.39-21,1-30.79-4.52-12.45-7-18.57-20.2-15.05-33.61,3.32-12.63,16-22.22,29.72-22.71,23.54-.84,34.33,15.07,34.35,34.09,0,2.61-1.19,3-3.52,3C326.06,402.8,314.58,402.85,301.93,402.85Z" transform="translate(52.5 -172.51)"/><path class="cls-2" d="M448.34,427.12c-17.44.57-32.77-13-32.66-30.79s14.37-30.56,32.24-30.93,33.46,14.11,33.45,30.39C481.36,413.68,467.25,427.07,448.34,427.12Z" transform="translate(52.5 -172.51)"/><path class="cls-2" d="M255.39,427.05c-9.7,0-9.66,0-9.71-9.39s-.29-18.86-.25-28.29c0-2.36-.65-3.87-3.09-4.39-2.08-.44-2.45-1.42-1.83-3.38,1.34-4.22,2.56-8.5,3.48-12.83.49-2.33,1.59-3,3.93-3,3.57.13,7.15,0,10.73,0,.74,0,2-.2,2.16.12,3,5.18,6.92,1.26,10.32.94,11-1,11.21-.83,7.47,9.07-.91,2.42-1.8,4.85-2.53,7.32-.87,3-1.74,5.28-5.93,5.5-3.67.2-4.64,3.38-4.59,6.76.11,9-.18,18,.2,27,.17,4-1.23,5-5,4.56A43.53,43.53,0,0,0,255.39,427.05Z" transform="translate(52.5 -172.51)"/><path class="cls-2" d="M225.29,426.12c-4.31,2.13-8.9.65-13.35.86-6.31.29-6.32.07-6.32-6.05,0-10.43-.05-20.87,0-31.3,0-2.19-.19-4-2.83-4.49-2.48-.5-3-1.76-2.1-4.06a44.18,44.18,0,0,0,2.8-9.88c.53-4.53,2.66-6.05,7.24-5.42,2.63.36,5.36,0,8,0,.88,0,2.39-.07,2.54.3,1.82,4.39,4.81,1.78,7.45,1.26.14,0,.28-.09.43-.11,4-.54,8.8-1.91,11.66.21,1.72,1.28-1.68,5.8-2.47,8.95-.55,2.21-1.51,4.33-2.2,6.51-1,3-1.86,5.54-6.21,5.9-3.81.32-4.72,3.85-4.73,7.24A235.24,235.24,0,0,0,225.29,426.12Z" transform="translate(52.5 -172.51)"/><path class="cls-3" d="M225.29,426.12c-1.36-1.32-.79-3-.8-4.5-.06-7.15-.05-14.31,0-21.47,0-1.38-.46-2.89.8-4.07Q225.28,411.11,225.29,426.12Z" transform="translate(52.5 -172.51)"/><path class="cls-1" d="M377.1,402.26c-3.3.35-7.23-.45-9.64-4.88-1.92-3.54-1.32-6.62,1.1-9.56s6-3.75,9.67-2.87a8.34,8.34,0,0,1,6.65,7.26,19.62,19.62,0,0,1,.08,3.43C384.83,403.37,385.83,401.81,377.1,402.26Z" transform="translate(52.5 -172.51)"/><path class="cls-1" d="M165.57,403.19c-7.94.24-11.92-2.71-12.07-8.62a8.08,8.08,0,0,1,5.76-8.31,9,9,0,0,1,10.5,2.53c3.51,4,2.79,8.76,1.78,13.1C171,404.45,167.34,402.54,165.57,403.19Z" transform="translate(52.5 -172.51)"/><path class="cls-1" d="M310.08,386.87c-2.92,0-4.71.07-6.49,0-1.26-.07-3,.64-3.68-.68-.83-1.64.61-3,1.68-4.1,4.43-4.67,13.66-3.5,16.42,2,1.09,2.15.79,3.26-1.93,3.13Z" transform="translate(52.5 -172.51)"/><path class="cls-1" d="M460.93,395.44c0,5.93-5.76,11.44-12.13,11.59-6.7.16-12.68-5.25-12.61-11.42.08-6.79,5.16-11.66,12.16-11.64C455.11,384,460.92,389.29,460.93,395.44Z" transform="translate(52.5 -172.51)"/></svg>