<svg id="Layer_1" data-name="Layer 1" xmlns="http://www.w3.org/2000/svg" viewBox="0 0 612.19 320.19"><defs><style>.cls-1{fill:#fefefe;}.cls-2{fill:#726f6f;}.cls-3{fill:#faeeef;}.cls-4{fill:#f9e7e9;}.cls-5{fill:#f7e3e5;}.cls-6{fill:#faebed;}.cls-7{fill:#fefdfd;}.cls-8{fill:#fdfcfc;}.cls-9{fill:#fdfdfd;}</style></defs><title>coca-cola</title><path class="cls-1" d="M307,527q-151,0-302.11.1c-3.33,0-4-.68-4-4.1Q1,367,.88,211c0-3.42.65-4.1,4-4.09q302.12.15,604.23,0c3.32,0,4,.67,4,4.09q-.16,156,0,312c0,3.42-.65,4.1-4,4.1Q458,526.92,307,527Z" transform="translate(-0.88 -206.91)"/><path class="cls-2" d="M459.66,317.1c6.61-5.32,12.49-11.62,20-15.75,3-1.65,6.07-3.12,9.54-3.34,2.05-.13,3.89.28,5.14,2.14,3.42,5.1-1.5,16.27-7.89,17.12,1.38-3.3,2.76-6.41,3.94-9.59.38-1,.81-2.44-.13-3.32-1.19-1.1-2.43-.2-3.5.52a91.09,91.09,0,0,0-18.14,16.5C453.36,339,441,358.68,430,379.32a11.77,11.77,0,0,0-.51,2.05c10.91-7.93,19.83-17,28.63-26.24a164.94,164.94,0,0,0,14.75-17.22c1.58-2.19,3.54-2.45,6.4-2.07-5.68,9-12.56,16.43-19.41,23.87a205.14,205.14,0,0,1-33,29.36c-1.05.74-2.34,1.52-2.86,2.62-3.55,7.48-6.8,15.1-8.24,23.36-.39,2.24-.82,5.05,1.77,6.19,2.22,1,3.88-1,5.35-2.47,4.33-4.32,7.65-9.46,11-14.58,6.84-10.53,13.73-21,23-29.56a62.94,62.94,0,0,1,8.89-6.92c5.35-3.38,10.91-5.34,16.35,0,.41.41.91,1.17,1.53.48,4.46-5,10-.67,16-2.87-4.52,7.91-8.35,14.58-12.15,21.28-5.47,9.62-10.95,19.23-16.31,28.91-.8,1.43-2.91,3.21-1.11,4.78s3.56-.56,5-1.7c5.8-4.66,10.11-10.75,14.33-16.85,1.73-2.51,3.54-3.67,6.91-2.36-8.05,11.86-16,23.54-27.83,31.66a19.06,19.06,0,0,1-1.68,1c-8.61,4.74-13,2.5-14.31-7.58-2.63,2.1-5.1,4.19-7.7,6.1-3.94,2.9-8.21,5.1-13.07,2.77-4.67-2.24-4.25-7-4.39-12.57-2.05,2.32-3.41,4.06-5,5.57a31.66,31.66,0,0,1-9,6.66c-7.34,3.27-13.47-.56-13.88-8.83-.29-5.93,1.49-11.49,3.31-17,1-3.1,2-6.23,3-9.38-4.92-.89-7.74,1.09-10.19,5.34-6.24,10.82-13.76,20.61-24.35,27.37-4.78,3-10.08,5.83-15.38,2.29-5.71-3.81-4.87-10.21-3.43-15.89,5.14-20.35,16.69-36.14,33.39-48a27.61,27.61,0,0,1,7.88-3.76c8.86-2.67,14.28,2.33,13.06,11.77-.73,5.66-3,10.81-5.33,16.3,4.41.31,6.95-1.2,8.9-5.27a285.13,285.13,0,0,1,39.6-60.73c.71-3,3.35-4.52,5.12-6.7C456.4,319.16,457.63,317.54,459.66,317.1Z" transform="translate(-0.88 -206.91)"/><path class="cls-2" d="M186.44,356.34c6.23-1.07,10.08-4.69,13.93-8.11,5.38-4.78,10.06-10.39,16.28-14.14,4.54-2.75,9.24-4.8,14.7-3.3,4.3,1.18,6.63,4,6.62,8.61,0,6.22-2.78,11.19-7.2,15.21-1.83,1.67-4.11,2.15-6.24.6s-1.42-4-.8-6a9.67,9.67,0,0,1,6.66-6.69c1.48-.44,3.53-.44,2.77-3s-2.58-2.5-4.68-1.89c-4.43,1.3-7.45,4.69-10.47,7.85a88.78,88.78,0,0,0-18.77,30.58,11.84,11.84,0,0,0-.77,2.36c-.53,3.61-1.48,7.4,1.85,10.2s6.58.9,9.43-.85c8.49-5.24,14.62-13.07,20.55-21,7.72-10.28,15-20.91,24.9-29.21a38.14,38.14,0,0,1,9.43-6c3.93-1.67,7.79-2.25,11.38.88.57.5,1.1,1.6,1.95,1,4.61-3.23,9.68-.57,14.75-1.74-.17,2.66-1.68,4.24-2.69,6-8.35,14.43-16.79,28.81-25.14,43.24-.76,1.31-2.53,2.9-1,4.39,1.66,1.67,3.28-.13,4.67-1.15,5.72-4.23,10.13-9.78,14.37-15.45,1.76-2.35,3.53-3.79,7-2.37-8.76,12.18-17.23,24.36-30.22,31.93-7.8,4.53-12.07,2.08-13.37-7.16-3.14,2.47-5.84,5.35-9.36,7.09-4.11,2-8.48,3.33-12.4.39-3.73-2.8-3.26-7.28-2.48-11.5.15-.8.23-1.61.44-3.1-3.75,3.18-6.93,6.13-10.36,8.71-5,3.74-10.2,7-16.64,7.48-8.1.54-13.69-4.58-14-12.84-.32-7.61,2.4-14.32,5.54-20.94.77-1.62,1.62-3.21,2.63-5.19-3.8-.1-6,1.21-7.93,4.45-6.52,11-14.42,20.88-24.35,28.89a29.56,29.56,0,0,1-8.4,4.89c-8.13,3-14.28-1.32-14.76-10.17a32.51,32.51,0,0,1,2.27-13.19,84.71,84.71,0,0,1,30.57-40.28,30,30,0,0,1,12.38-5.43c6.36-1.09,10.73,2.35,11.38,9C191.24,343.79,189.8,349.56,186.44,356.34Z" transform="translate(-0.88 -206.91)"/><path class="cls-2" d="M448.9,326.05c-1.72,1.45-3,0-4.32-.77-6.79-4.18-13.54-8.43-20.35-12.59-6-3.68-12.37-6.53-19.35-7.58-3.39-.51-5.23,0-5.73,4.69-1.56,14.72-7.76,27.33-18.8,37.13a26.94,26.94,0,0,1-10.21,5.58c-5.15,1.56-9-1.1-9.63-6.64-.44-3.93.75-7.59,2.31-11.08,5.27-11.84,13.78-20.8,24-28.23,1.18-.86,2.37-1.7,4.08-2.92-4.83-1.63-8.51.35-12.07,2.22C368,311.53,359,319.6,350.64,328.49c-17.58,18.76-32.08,39.58-40,64.66-1.82,5.73-3.15,11.55-2.78,17.64.59,9.76,8.54,15.51,17,11.14,17.07-8.86,27.07-23.65,30.72-42.92.46-2.41.65-5.36-1.9-6.74s-5,.15-7,2a32,32,0,0,0-9.4,16,8,8,0,0,1-4.6,5.81c-5.37,2.71-9.78,6.87-14.9,11.76,2.52-18.48,9.32-32.87,25.22-41.09,11-5.7,18.22-.52,17.3,12.14a39.92,39.92,0,0,1-3.56,13.4c-6.68,15-16.06,27.72-29.89,36.47-9,5.68-18.69,8.64-28.24,2.09-10.06-6.9-11.34-17.9-9.51-29,2.45-14.81,9.41-27.9,16.91-40.57,14.86-25.09,34.32-45.34,60-58.8,6.09-3.19,12.48-5.55,19.43-5.55,2.08,0,4.68-.29,6.14.81,4.12,3.1,7.84,1.77,12.15.65a40.7,40.7,0,0,1,31.44,4.07q11.64,6.64,23.29,13.28c-.26,2.2-2,3.34-3.28,4.77C453.05,322.35,451.49,324.81,448.9,326.05Z" transform="translate(-0.88 -206.91)"/><path class="cls-2" d="M275.66,434.75c-16.9-6-33.24-14.75-49.63,1-13.52-17.8-32.14-15.49-50.69-12.13-14.78,2.69-29.12,7.62-44,9.83-6.29.93-12.55,1.23-18.78-.43-15-4-23.66-15.52-24.19-31.47-.56-17,5-32,13.37-46.15,13.85-23.34,31.87-42.26,56.11-54.27a48.39,48.39,0,0,1,17.7-4.84c9.68-.77,15.31,6.41,12.41,16-1.31,4.33-3.18,8.41-6.92,11.13-1.91,1.39-4,2.26-6.31.73s-2.1-4-1.67-6.31c.78-4.21,3.55-6.66,7.43-7.67,1.87-.49,3.53-.74,3.19-3.33a4.07,4.07,0,0,0-3.93-3.73c-2.49-.32-4.78.68-7,1.56-8.83,3.4-16,9.34-22.54,16.09C134.7,336.64,121.26,354,113.24,375.2a94.89,94.89,0,0,0-5.18,20.74c-2.5,18.3,7.12,29.44,25.6,29.9,13.28.34,25.87-3.55,38.65-6.36,14-3.1,27.72-8,42.21-8.84,23-1.31,43,5.69,59.61,22.4C274.66,433.58,275.15,434.18,275.66,434.75Z" transform="translate(-0.88 -206.91)"/><path class="cls-2" d="M461.92,332.51c3.15-3.77,5.85-7,8.58-10.27a3.88,3.88,0,0,1,3.37-1.5c18.06.75,32.66-7.51,46-18.89l2.43-2.09C518.4,315.69,485.89,339.36,461.92,332.51Z" transform="translate(-0.88 -206.91)"/><path class="cls-2" d="M316.35,332c-2.44,4.08-4.38,7.45-6.45,10.73-1,1.53-12,2.77-13.2,1.56-1-1-.13-1.78.36-2.59,1.28-2.12,2.71-4.15,3.77-6.37,1.22-2.56,2.87-3.64,5.7-3.39S312.52,332,316.35,332Z" transform="translate(-0.88 -206.91)"/><path class="cls-3" d="M500.08,400.11l1.24-.16.47.52a5.69,5.69,0,0,1,.44,1.34,11.37,11.37,0,0,1,.16,1.43,13,13,0,0,1-.46,5.08,1.12,1.12,0,0,1-1.16.71c-1.19-.22-1.57-1-1.53-2.18a2.22,2.22,0,0,1-1.26-2.73A14.1,14.1,0,0,1,500.08,400.11Z" transform="translate(-0.88 -206.91)"/><path class="cls-2" d="M500.77,409l.57-1.18c.62-.84.46-2.27,1.83-2.55a3.32,3.32,0,0,1,2,.16A4,4,0,0,1,507.3,408C505.47,410.65,503.25,410.69,500.77,409Z" transform="translate(-0.88 -206.91)"/><path class="cls-4" d="M448.9,326.05a23.3,23.3,0,0,1,5.69-6.14,1.5,1.5,0,0,1,1.23,1.19,29.93,29.93,0,0,1-5.94,6.11C449.55,326.82,449.22,326.44,448.9,326.05Z" transform="translate(-0.88 -206.91)"/><path class="cls-5" d="M507.3,408c-1.28-.22-1.83-1.23-2.37-2.26-.73-1.27-.21-2.64-.28-4a1.85,1.85,0,0,1,.66-1.13,1.51,1.51,0,0,1,1.8.33l.06.13c2.08,1.72,1.71,3.82.87,6Z" transform="translate(-0.88 -206.91)"/><path class="cls-6" d="M455.82,321.1l-1.23-1.19,3.77-4.22,1.3,1.41A12.76,12.76,0,0,1,455.82,321.1Z" transform="translate(-0.88 -206.91)"/><path class="cls-2" d="M508,407.09a11.58,11.58,0,0,0-.87-6C510.24,402.67,510.38,404.69,508,407.09Z" transform="translate(-0.88 -206.91)"/><path class="cls-2" d="M500.08,400.11c.11,1.62-.77,2.81-1.63,4a1.53,1.53,0,0,1-.84-1C497.8,401.57,498.34,400.31,500.08,400.11Z" transform="translate(-0.88 -206.91)"/><path class="cls-2" d="M501.32,400c1.78-1.63,3.63-1.49,5.51-.21-1.78,1.05-3.58,2-5.42.11Z" transform="translate(-0.88 -206.91)"/><path class="cls-2" d="M501.41,399.85l5.43-.11.27,1.23-2.5.18a2.31,2.31,0,0,1-3.22,0C501.4,400.72,501.4,400.28,501.41,399.85Z" transform="translate(-0.88 -206.91)"/><path class="cls-2" d="M497.61,403.12l.84,1c.26.91.53,1.82.79,2.73C496.13,406.8,497.66,404.59,497.61,403.12Z" transform="translate(-0.88 -206.91)"/><path class="cls-7" d="M445,416.06a59.15,59.15,0,0,1,2.09-6.09c5.81-12.77,13.44-24.23,23.61-33.75,2.36-2.21,5.42-6.3,8.48-3.44,2.48,2.3-1.38,5.52-2.87,8-6.43,10.74-12.2,21.92-19.68,32-2,2.64-4,5.29-6.8,7-1,.63-2.31,1.29-3.63.36S444.92,417.92,445,416.06Z" transform="translate(-0.88 -206.91)"/><path class="cls-7" d="M382.29,387.06c2.3,3.3,4.26,6.34,7.44,7.72,3.88,1.67,4,3.54,1.72,6.9-4,5.84-7.84,11.82-13.42,16.23-2.16,1.72-4.76,3.67-7.48,1.92-2.93-1.89-2.37-5.1-1.49-8.1C371.72,402.69,376.77,395,382.29,387.06Z" transform="translate(-0.88 -206.91)"/><path class="cls-8" d="M402.06,377a40,40,0,0,1-4.67,13.84c-.61,1.16-1.18,1.64-2.61,1.23-4.22-1.23-7.81-6.73-7.11-11.18.76-4.81,6.7-10.38,10.7-9.93C401.9,371.4,402,374.19,402.06,377Z" transform="translate(-0.88 -206.91)"/><path class="cls-9" d="M239.12,381.94a74.64,74.64,0,0,1,3-7.43,153.89,153.89,0,0,1,22.45-32.27,14.61,14.61,0,0,1,2.07-2.09c2.17-1.57,4.57-4.43,7.16-2.09s-.78,4.4-1.79,6.26c-6.28,11.59-12.79,23-20.54,33.68-2.21,3.05-4.44,6.19-7.93,7.87C240.46,387.36,238.79,386.18,239.12,381.94Z" transform="translate(-0.88 -206.91)"/><path class="cls-7" d="M165.63,352.63c3,3.66,6.19,6.62,10.39,8.09,2,.71,2,1.61,1.06,3.26-4.16,6.95-8.57,13.7-14.66,19-2.46,2.15-5.44,4.51-8.68,2.37s-1.94-5.74-1.06-8.69C155.31,367.85,160.3,360.32,165.63,352.63Z" transform="translate(-0.88 -206.91)"/><path class="cls-8" d="M185.55,343.13a36.17,36.17,0,0,1-3.5,11.79c-.65,1.32-1.35,2-3,1.72-7.22-1.16-10.15-7.94-6-14.09a13.52,13.52,0,0,1,5-4.56C182.48,335.77,185.49,337.63,185.55,343.13Z" transform="translate(-0.88 -206.91)"/><path class="cls-7" d="M394.94,307.07c-2,17.36-8.36,30.46-21.82,39.3-2.08,1.37-4.64,3.07-7.06.7-2.25-2.2-1.37-5.05-.38-7.44C371.47,325.77,381,315.4,394.94,307.07Z" transform="translate(-0.88 -206.91)"/><path class="cls-2" d="M503.12,405.86l-1.78,2,.06-5.76c1-.51,1.51.05,2,.76A4.79,4.79,0,0,1,503.12,405.86Z" transform="translate(-0.88 -206.91)"/><path class="cls-2" d="M503.15,403l-1.75-1a1.16,1.16,0,0,1,0-.93l3.22,0,.57.84C504.8,402.93,504.24,403.53,503.15,403Z" transform="translate(-0.88 -206.91)"/><path class="cls-2" d="M503.15,403l2-1.06c1.63,1.37-.36,2.48-.25,3.75l-1.81.13A2.52,2.52,0,0,1,503.15,403Z" transform="translate(-0.88 -206.91)"/></svg>