<svg id="Layer_1" data-name="Layer 1" xmlns="http://www.w3.org/2000/svg" viewBox="0 0 612.17 320.78"><defs><style>.cls-1{fill:#fefefe;}.cls-2{fill:#5c5c5c;}.cls-3{fill:#cecece;}</style></defs><title>samsung</title><path class="cls-1" d="M307.1,527.77q-151,0-302,.1c-3.61,0-4.18-.86-4.17-4.26Q1,367.49.89,211.37c0-3.38.54-4.28,4.16-4.27q302,.17,604.07,0c3.41,0,3.94.78,3.94,4q-.16,156.36,0,312.72c0,3.23-.51,4-3.93,4Q458.11,527.69,307.1,527.77Z" transform="translate(-0.89 -207.1)"/><path class="cls-2" d="M259.36,343.22q-3.85,21.42-7.72,42.85c-.23,1.27-.48,2.54-.73,3.81-2.43,12.38-2.43,12.28-15.07,12.09-3.1-.05-4.66-.88-5.22-4.12-3-17.36-6.14-34.68-9.24-52A2.36,2.36,0,0,0,220,344c0,3.19,0,6.39,0,9.59-.11,14.72-.29,29.44-.28,44.16,0,3-.72,4.23-4,4.29-12.71.23-12.83.35-12.66-12.16.22-17.14.8-34.28.88-51.42,0-4.63,1.76-5.78,6-5.54,5.81.34,11.65.27,17.47.1,3.06-.08,4.52.54,5,4.06,2.1,14.85,4.59,29.64,7.07,45.26,2.1-2.68,1.91-5.28,2.29-7.6,2-12.44,4-24.89,5.83-37.37.42-2.88,1.38-4.35,4.53-4.29,6.8.15,13.6.11,20.39,0,2.49,0,3.35.81,3.39,3.36q.57,30.8,1.4,61.6c.08,3-1.11,3.83-4,3.95-13.05.54-13.05.62-13.05-12.58V343.28Z" transform="translate(-0.89 -207.1)"/><path class="cls-2" d="M462.54,364.4c-.05-9.23,0-18.46-.2-27.68-.06-2.68.63-3.83,3.49-3.73,16.29.57,13-2.51,13.19,12.71.22,16.84-.06,33.68.13,50.51.05,4-1.19,5.46-5.23,5.2a128.76,128.76,0,0,0-14.57,0c-3.37.18-4.83-1.13-5.74-4.32-4.22-14.77-8.66-29.47-13.08-44.17-.4-1.35-.47-2.9-1.85-4.1,0,5.51-.05,10.86,0,16.21.12,10.68.19,21.36.51,32,.09,3.11-.76,4.24-4,4.34-12.61.36-12.61.47-12.61-12.22,0-16.83.19-33.67-.12-50.5-.09-4.88,1.44-6.1,6-5.73a146.25,146.25,0,0,0,15.53.09c2.73-.07,4.05,1,4.78,3.65,4.18,15.11,8.48,30.19,12.75,45.28,1.23.44,1.35-.44,1.33-1.23C462.71,375.3,463.32,369.83,462.54,364.4Z" transform="translate(-0.89 -207.1)"/><path class="cls-2" d="M401.21,361.69c0,7.76.05,15.52,0,23.28-.09,9.63-4.64,15.52-14,17.74a41.09,41.09,0,0,1-18.75.06c-9.35-2.12-14.15-7.5-14.32-16.94-.3-16.33,0-32.66-.1-49,0-3.11,1.19-4.15,4.31-4.24,12.73-.38,12.73-.47,12.73,12.08q0,18.18,0,36.38a37.25,37.25,0,0,0,.21,4.84,5.92,5.92,0,0,0,6.23,5.58c3.43.07,5.9-1.67,6.35-5.36a42.71,42.71,0,0,0,.23-5.31c0-14.39.1-28.78-.05-43.17,0-3.67,1-5.09,4.93-5.07,12.2.06,12.2-.11,12.2,12.14Q401.2,353.2,401.21,361.69Z" transform="translate(-0.89 -207.1)"/><path class="cls-2" d="M493.49,367.57q0-6.56,0-13.11c0-16.41,6.17-23,22.54-23.67a37.08,37.08,0,0,1,12,1.51c11.35,3.27,13.2,11.65,13.12,20.53,0,2-1.11,2.44-2.79,2.43-2.26,0-4.54-.14-6.79,0-4.79.4-8.58.22-8.13-6.47.22-3.29-2.21-5.56-6-5.62s-5.62,1.77-6.55,5.19c-1,3.68-.66,7.4-.69,11.1,0,7.76-.1,15.53,0,23.29.09,5.46,2.49,8,7,8s6.73-2.5,6.79-8c0-1.94,0-3.89,0-5.83,0-2.19-.43-3.78-3.16-3.74-5.37.09-3.24-4.06-3.58-6.69-.43-3.38,2-3.46,4.39-3.44,5.17.05,10.35.11,15.52,0,2.86-.07,4.07.9,4,3.91-.18,6,.07,12-.1,18-.24,8.23-4.29,13.8-12,16.39a36.48,36.48,0,0,1-23.82-.08c-7.4-2.54-11.48-8.22-11.68-16.15C493.37,379.22,493.49,373.39,493.49,367.57Z" transform="translate(-0.89 -207.1)"/><path class="cls-2" d="M82.18,378.59h2.43c6.4,0,6.48,0,6.54,6.21,0,3,.47,5.67,3.62,6.68,2.67.85,5.56,1,7.7-1.3s2-5.31.85-8.18c-1.3-3.39-4.12-5.28-7.07-7-5-3-10.11-5.78-15-9-8.05-5.32-9.28-13.28-7.36-21.9,1.78-8,7.79-11.41,15.35-12.83a42.26,42.26,0,0,1,17.81.4c9.3,2.24,14,9.56,12.55,18.94-.33,2.14-1.41,2.67-3.23,2.69-2.43,0-4.86,0-7.28.19-4,.34-6.95,0-6.52-5.37a5.16,5.16,0,0,0-4.77-5.77c-2.36-.34-4.7,0-6,2.24-1.6,2.82-2,5.85.3,8.6s5.64,4.29,8.77,6a93.82,93.82,0,0,1,13.29,8c8.24,6.32,8.24,14.87,6.29,23.77-1.71,7.83-7.58,11.2-14.9,12.68a38.46,38.46,0,0,1-20.11-.89c-9.53-3.16-14.54-12-12.66-21.8.32-1.66,1.06-2.18,2.55-2.18,2.26,0,4.53,0,6.79,0Z" transform="translate(-0.89 -207.1)"/><path class="cls-2" d="M299.88,378.31a20.17,20.17,0,0,0,2.91,0c4.55-.67,6.63,1,6,5.8-.42,3.27.3,6.32,4,7.35,2.73.75,5.63.76,7.52-1.83,2-2.77,1.55-5.68,0-8.67-1.41-2.79-3.77-4.36-6.27-5.86-5-3-10.2-5.67-15-9-7.56-5.3-10-12.86-7.32-22.34,2.21-7.92,8.38-11.07,15.9-12.23a40.64,40.64,0,0,1,17.79.82c8.64,2.56,13.06,9.92,11.6,18.74-.27,1.65-.94,2.24-2.47,2.24-2.1,0-4.21-.07-6.3.12-4.61.41-8.71.53-8.39-6.09.13-2.72-1.93-4.35-4.62-4.81-2.22-.38-4.43.12-5.63,2-1.51,2.35-2.18,5.08-.6,7.78,1.36,2.31,3.59,3.66,5.84,5,5.16,3,10.7,5.38,15.52,9,7.76,5.82,10.23,13.94,7.46,24.7-1.83,7.08-7.86,11.37-17.22,12.65a39.35,39.35,0,0,1-17.27-1.17c-9.6-3-14.75-11.9-12.82-21.69a2.6,2.6,0,0,1,2.95-2.44c2.1,0,4.21,0,6.31,0Z" transform="translate(-0.89 -207.1)"/><path class="cls-2" d="M161.85,343.87q-1.75,11.63-3.51,23.23c-1.49,10.07-3.14,20.12-4.34,30.22-.46,3.85-2.2,4.92-5.67,4.61-1.93-.17-3.88,0-5.82,0-7.74,0-7.69,0-6.34-7.36,3.48-19.06,7-38.12,10.3-57.22.56-3.27,1.84-4.36,5-4.3,7.28.13,14.56.1,21.83,0,2.86-.06,4.17.56,4.73,3.83,3.49,20.54,7.27,41,11,61.52.46,2.5,0,3.43-2.74,3.63-14.4,1.06-14.57,1.15-16.79-13-2.35-15-4.34-30-6.49-45.05Z" transform="translate(-0.89 -207.1)"/><path class="cls-3" d="M462.54,364.4c1.33,6.87.46,13.8.88,21.07a3.61,3.61,0,0,1-1.89-3.49C463.36,376.2,461.6,370.22,462.54,364.4Z" transform="translate(-0.89 -207.1)"/></svg>