<svg id="Layer_1" data-name="Layer 1" xmlns="http://www.w3.org/2000/svg" viewBox="0 0 612.22 314.22"><defs><style>.cls-1{fill:#fefefe;}.cls-2{fill:#404040;}.cls-3{fill:#f2f2f2;}.cls-4{fill:#f7f7f7;}.cls-5{fill:#eee;}.cls-6{fill:#f0f0f0;}.cls-7{fill:#efefef;}.cls-8{fill:#f8f8f8;}.cls-9{fill:#fdfdfd;}.cls-10{fill:#fcfcfc;}</style></defs><title>logo-vector-samsonite</title><path class="cls-1" d="M306.66,584Q155.85,584,5,584.09c-3.68,0-4.15-1-4.15-4.34Q1,426.92.86,274.09c0-3.72,1-4.19,4.3-4.19q301.88.14,603.75,0c3.67,0,4.15,1,4.14,4.35q-.15,152.82,0,305.66c0,3.71-1,4.19-4.3,4.18Q457.72,583.91,306.66,584Z" transform="translate(-0.86 -269.87)"/><path class="cls-2" d="M247.1,417.05c-.43-2.52-1.9-4.48-4.32-4.64-5.16-.33-10.35-.26-15.53-.17-2.64.05-1.75,2.32-1.76,3.73-.07,10.79-.28,21.58.08,32.36.15,4.38-2,4.19-5,4.13-2.78-.07-5.27.48-5.13-4,.34-10.61,0-21.24.18-31.86.06-3.28-.58-4.83-4.19-4.44-3,.32-6.14,0-9.21.08-5.13.09-7,1.94-7.05,7.05,0,9.64-.27,19.29.09,28.92.18,4.81-2.58,4.13-5.52,4.31-3.26.2-5.07-.3-5-4.37.28-9.8,0-19.61.13-29.41.14-10.28,6.55-16.74,16.72-16.84q19.43-.18,38.84,0c10.66.1,17,6.76,17,17.6,0,9.32-.2,18.64.11,27.95.14,4.09-1,5.69-5.08,5.05a19.24,19.24,0,0,0-3.85.17c-2.44-.62-1.37-2.62-1.39-4C247.12,438.1,247.42,427.57,247.1,417.05Z" transform="translate(-0.86 -269.87)"/><path class="cls-2" d="M94,452.42c-5.66,0-11.34-.23-17,.07-4.72.24-3.15-3.07-3.2-5.27s-1.3-5.34,3.31-5.23c10.51.25,21,.05,31.54.07,3.79,0,7.43-.39,8-5.12s-2.9-5.93-6.47-7q-12.93-4-25.79-8.15c-8.2-2.66-12-9-10.6-17.77,1-6.22,7.59-11.93,15.26-11.54,9.85.5,19.74.39,29.6,0,4.66-.18,3.77,2.54,3.82,5.21s.51,5.22-4,5c-9-.43-18.11-.08-27.17-.14-3.37,0-6.93,0-7.59,4.15-.64,4,2.7,4.92,5.75,5.89,8.57,2.72,17.1,5.55,25.64,8.37,8.12,2.69,12.9,9.46,11.88,16.75-1.23,8.74-7.19,14.33-16.06,14.69C105.33,452.61,99.66,452.42,94,452.42Z" transform="translate(-0.86 -269.87)"/><path class="cls-2" d="M178.66,433.07c0,5.23-.1,10.45.05,15.67.08,2.71-.77,3.77-3.58,3.72-9-.14-18.1.11-27.15-.1-7.88-.18-14.68-5.74-15.87-12.53-1.5-8.51,2.09-15.54,9.5-18.83a13.32,13.32,0,0,1,5.67-1c5.82,0,11.64.05,17.45,0,1.17,0,2.83.75,3.41-.89a4.64,4.64,0,0,0-.93-4.57c-1.58-2-3.64-2.41-6-2.38-7.11.08-14.23-.19-21.33.1-4.14.17-3.88-2.26-3.78-5s-.95-5.68,3.71-5.51c7.59.26,15.2-.13,22.79.11,9.88.33,16,7,16.09,17C178.69,423.6,178.66,428.34,178.66,433.07Z" transform="translate(-0.86 -269.87)"/><path class="cls-2" d="M522.74,431c-4,0-8.11-.25-12.12.12-1.86.16-5.17-2.15-5.43,2.39-.27,4.72,1.49,7.9,5.43,8.28s8.07.22,12.11.27c2.26,0,4.52,0,6.79,0,6.74,0,6.91.28,6.4,7.23-.15,2.18-.74,3.23-3.13,3.19-7.27-.12-14.56.23-21.82-.12-9.63-.45-15.61-7.18-15.62-16.95,0-5.39,0-10.78,0-16.17,0-10.05,5.28-16.28,15.22-17.2a64.59,64.59,0,0,1,16.43.28c8.21,1.36,13.28,7.11,13.14,15.4-.07,4.34,2,10.12-.87,12.61-2.41,2.13-8,.6-12.17.67C525.65,431,524.19,431,522.74,431Z" transform="translate(-0.86 -269.87)"/><path class="cls-2" d="M280.85,452.41c-4.53,0-9.07-.24-13.58.07-4.31.3-3.66-2.5-3.67-5.07s-.77-5.61,3.83-5.44c8.07.29,16.17.13,24.25.06,2.81,0,6.54.8,7.25-3.06.75-4-3.08-4.24-5.74-5.12-6.86-2.27-13.78-4.38-20.6-6.78-6.46-2.27-9.26-7.34-8.41-14.59A12,12,0,0,1,275.8,402c8.56-.35,17.13-.12,25.7-.19,1.77,0,2.49.52,2.69,2.47.79,7.56.56,7.91-6.94,7.91H278.81c-2,0-4.26-.13-4.59,2.43s2,2.94,3.83,3.54c7,2.27,14.08,4.49,21.08,6.84,7.49,2.52,11.06,8.52,9.83,16.29-.93,6-6.73,10.71-13.56,11.13-.32,0-.65,0-1,0Z" transform="translate(-0.86 -269.87)"/><path class="cls-2" d="M390.43,433.22c0-5.06-.08-10.13,0-15.2.15-8.52,5.7-15.14,14.06-15.88a118.19,118.19,0,0,1,19.37-.11c9,.7,14.43,6.7,14.77,16.27.38,10.28,0,20.59.14,30.89,0,4.57-3.2,3.07-5.47,3.19s-5,.8-4.89-3.31c.18-9.64.09-19.29,0-28.93,0-6-1.85-7.88-7.77-7.95-4.05,0-8.09,0-12.14,0-6,.05-8.19,2.18-8.23,8.2-.06,9.31-.2,18.63.08,27.94.11,3.69-1.27,4.47-4.46,4.13-2.7-.28-6,1-5.6-4S390.43,438.29,390.43,433.22Z" transform="translate(-0.86 -269.87)"/><path class="cls-2" d="M461.34,416.74c0-7,.15-14,0-21.05-.14-5.31,3.69-2.65,5.8-3.06s4.87-.68,4.12,3.13c-1.08,5.46,1.62,6.82,6.35,6.07a12.43,12.43,0,0,1,1.93,0c5.9,0,8.16,3.35,6.27,9-.64,1.9-2,1.23-3.14,1.34-3.65.32-8.49-1.62-10.67.84-2.32,2.61-.58,7.47-.71,11.35-.13,3.58-.08,7.18,0,10.77.1,4.22,2.16,6.72,6.49,6.86a76.33,76.33,0,0,0,9.2,0c4.66-.4,3.69,2.83,3.69,5.44s.89,5.49-3.55,5-9,.43-13.49-.73c-7.46-1.93-12.14-7.64-12.25-15.41,0-3.26,0-6.53,0-9.79Z" transform="translate(-0.86 -269.87)"/><path class="cls-2" d="M328.38,421c-1.28-4.72-2.16-9.42-1.1-14.38,1.87-8.7,9.65-16,18.36-16.93,10-1.06,18.2,3.22,22,11.71-4.13.41-8.43-.47-12.09,2-4.16,3.19-8.77,5.9-11.34,10.8-2.88,4-2.88,8.69-3,13.38,0,2.25.32,5.36-3.72,4.29A15.89,15.89,0,0,1,328.38,421Z" transform="translate(-0.86 -269.87)"/><path class="cls-2" d="M356.56,405.41a62.35,62.35,0,0,1,8.12-1,21.52,21.52,0,0,1,20.43,15.07A22.41,22.41,0,0,1,377.89,444c-.85.67-2.1,1.63-2.89,1.42-1.83-.49-.48-2.18-.63-3.33-.43-3.18-.22-6.49-2.12-9.33-3.43-3.27-5.18-8.15-9.74-10.33a25.53,25.53,0,0,0-14.61-3.92c-2,0-4,.12-3.77-2.87C346.37,409.9,350.7,406.71,356.56,405.41Z" transform="translate(-0.86 -269.87)"/><path class="cls-2" d="M345.72,446.56c-5.84,2.66-11.77,4.21-18.2,2.09-9.1-3-14.19-9.51-15.4-18.77-1.08-8.35,2.27-15.26,8.88-20.46.73-.57,1.51-1.5,2.54-.84.8.53.19,1.45.23,2.21.23,4.67.83,9.27,3.48,13.31,3.68,2.21,5.56,6.57,9.68,8.25,5.18,3,10.93,3,16.65,3.23,2,4.78-1.88,6.82-4.42,9.43C348.27,445.93,346.76,445.78,345.72,446.56Z" transform="translate(-0.86 -269.87)"/><path class="cls-2" d="M369.94,433.2c4.06,15.52-1.54,23.65-9.47,28.36-10.58,6.27-24,2.44-30.1-8.92,6.33-.26,12.58-.38,17.55-4.75,2.18-3.51,5.7-6.05,7.13-10.1,1.93-3.73,2.1-7.77,2.2-11.87.05-2.25.11-5,3.77-3.77C365.36,424.7,369,427.8,369.94,433.2Z" transform="translate(-0.86 -269.87)"/><path class="cls-2" d="M454.71,427.49c0,7-.26,14,.09,21,.2,4-1.74,4.2-4.63,3.91-2.45-.25-5.52,1.21-5.43-3.67.26-14.51.22-29,0-43.53-.07-5.1,3.4-3,5.65-3.37,2.59-.37,4.56-.19,4.39,3.63C454.47,412.81,454.71,420.15,454.71,427.49Z" transform="translate(-0.86 -269.87)"/><path class="cls-3" d="M356.56,405.41a31.64,31.64,0,0,0-11.64,9.94c-.93-.45-1.09-1.34-1.28-2.23a18.82,18.82,0,0,1,11.89-9.72C355,404.52,354.91,405.42,356.56,405.41Z" transform="translate(-0.86 -269.87)"/><path class="cls-4" d="M247.1,417.05c1.23,10.18.18,20.41.59,30.61.06,1.66-.85,3.62,1,5-.53.76-.66,2.11-1.77,2.06-.81,0-1.12-1.06-1-1.93,1.66-11.64.66-23.33.59-35C246.5,417.51,246.89,417.28,247.1,417.05Z" transform="translate(-0.86 -269.87)"/><path class="cls-5" d="M369.94,433.2a36.78,36.78,0,0,0-8.71-10.08c.44-.92,1.31-1.09,2.19-1.26,4.54,2.33,7.22,6.19,8.83,10.93C371.45,432.73,370.51,431.89,369.94,433.2Z" transform="translate(-0.86 -269.87)"/><path class="cls-6" d="M336.1,432.93a18.6,18.6,0,0,1-8.85-8.83c1.27-.7,1-2,1.13-3.1a36.18,36.18,0,0,0,8.76,9.89C336.5,431.41,335.45,431.73,336.1,432.93Z" transform="translate(-0.86 -269.87)"/><path class="cls-7" d="M355.71,438.84a16.38,16.38,0,0,1-7.79,9.05,2.34,2.34,0,0,0-2.2-1.33c2.93-3.25,7.55-5.26,7.6-10.61C356.08,435.26,355.21,437.63,355.71,438.84Z" transform="translate(-0.86 -269.87)"/><path class="cls-8" d="M372.65,400.06a10.21,10.21,0,0,1-2,1c-1.09.25-1.48-.42-1.29-1.39a.94.94,0,0,1,1.46-.71C371.35,399.21,371.84,399.57,372.65,400.06Z" transform="translate(-0.86 -269.87)"/><path class="cls-9" d="M156.8,441.93c-3.07,0-6.16.17-9.21-.05-3.53-.25-5.69-2.25-5.62-6s2.4-5.7,5.81-5.83c6-.23,12,0,17.94-.08,2.2,0,2.59,1,2.72,3C169.08,442.06,169.14,442.05,156.8,441.93Z" transform="translate(-0.86 -269.87)"/><path class="cls-10" d="M517.3,421c-2.9,0-5.82-.21-8.69.05-3.95.37-3.89-2-3.1-4.51.7-2.26,2.4-4.09,4.83-4.19,5-.23,10-.16,15,0,2.58.06,4.16,1.92,4.79,4.19.68,2.44.83,4.89-3.14,4.55C523.76,420.79,520.52,421,517.3,421Z" transform="translate(-0.86 -269.87)"/><path class="cls-9" d="M355.71,438.84c-1.37-.47-.79-2.6-2.39-2.89-6.22,1.79-11.9.45-17.22-3-.51-1.13-.65-2.06,1-2,2.24.74,2.9.22,2.68-2.39-.46-5.49.17-10.85,3.82-15.38a2.37,2.37,0,0,1,1.28,2.23c-.78,3.2,1.47,1.95,2.8,1.91,5.73-.18,11.1.85,15.7,4.6a2.35,2.35,0,0,1-2.19,1.26c-2-.85-3.08-.71-2.83,2C358.84,429.94,358.63,434.69,355.71,438.84Z" transform="translate(-0.86 -269.87)"/></svg>